<mxfile host="app.diagrams.net" modified="2024-05-31T04:23:40.914Z" agent="Mozilla/5.0 (Windows NT 10.0; Win64; x64) AppleWebKit/537.36 (KHTML, like Gecko) Chrome/125.0.0.0 Safari/537.36 Edg/125.0.0.0" etag="EW2YUVRBkKQSNlLi6RK4" version="24.4.10" type="github">
  <diagram name="Page-1" id="i-4LaPN7UFeCLjP6VC3A">
    <mxGraphModel dx="1199" dy="685" grid="1" gridSize="10" guides="1" tooltips="1" connect="1" arrows="1" fold="1" page="1" pageScale="1" pageWidth="850" pageHeight="1100" math="0" shadow="0">
      <root>
        <mxCell id="0" />
        <mxCell id="1" parent="0" />
        <mxCell id="G_tnERsE5DukUGx3x08J-32" style="edgeStyle=orthogonalEdgeStyle;rounded=0;orthogonalLoop=1;jettySize=auto;html=1;entryX=0;entryY=0.5;entryDx=0;entryDy=0;" edge="1" parent="1" source="G_tnERsE5DukUGx3x08J-1" target="G_tnERsE5DukUGx3x08J-13">
          <mxGeometry relative="1" as="geometry" />
        </mxCell>
        <mxCell id="G_tnERsE5DukUGx3x08J-84" style="edgeStyle=orthogonalEdgeStyle;rounded=0;orthogonalLoop=1;jettySize=auto;html=1;entryX=0;entryY=0.5;entryDx=0;entryDy=0;" edge="1" parent="1" source="G_tnERsE5DukUGx3x08J-1" target="G_tnERsE5DukUGx3x08J-2">
          <mxGeometry relative="1" as="geometry" />
        </mxCell>
        <mxCell id="G_tnERsE5DukUGx3x08J-1" value="" style="whiteSpace=wrap;html=1;aspect=fixed;" vertex="1" parent="1">
          <mxGeometry x="55" y="300" width="90" height="90" as="geometry" />
        </mxCell>
        <mxCell id="G_tnERsE5DukUGx3x08J-2" value="" style="rounded=0;whiteSpace=wrap;html=1;" vertex="1" parent="1">
          <mxGeometry x="125" y="210" width="120" height="60" as="geometry" />
        </mxCell>
        <mxCell id="G_tnERsE5DukUGx3x08J-3" value="Platform Portal" style="text;html=1;align=center;verticalAlign=middle;whiteSpace=wrap;rounded=0;" vertex="1" parent="1">
          <mxGeometry x="155" y="225" width="60" height="30" as="geometry" />
        </mxCell>
        <mxCell id="G_tnERsE5DukUGx3x08J-4" value="NGINX Reverse Proxy" style="text;html=1;align=center;verticalAlign=middle;whiteSpace=wrap;rounded=0;" vertex="1" parent="1">
          <mxGeometry x="70" y="330" width="60" height="30" as="geometry" />
        </mxCell>
        <mxCell id="G_tnERsE5DukUGx3x08J-8" value="" style="strokeWidth=2;html=1;shape=mxgraph.flowchart.database;whiteSpace=wrap;" vertex="1" parent="1">
          <mxGeometry x="405" y="450" width="60" height="70" as="geometry" />
        </mxCell>
        <mxCell id="G_tnERsE5DukUGx3x08J-26" value="" style="group" vertex="1" connectable="0" parent="1">
          <mxGeometry x="255" y="120" width="76" height="76" as="geometry" />
        </mxCell>
        <mxCell id="G_tnERsE5DukUGx3x08J-18" value="" style="whiteSpace=wrap;html=1;aspect=fixed;" vertex="1" parent="G_tnERsE5DukUGx3x08J-26">
          <mxGeometry width="76" height="76" as="geometry" />
        </mxCell>
        <mxCell id="G_tnERsE5DukUGx3x08J-19" value="OAuth Server" style="text;html=1;align=center;verticalAlign=middle;whiteSpace=wrap;rounded=0;" vertex="1" parent="G_tnERsE5DukUGx3x08J-26">
          <mxGeometry x="6" y="21" width="60" height="30" as="geometry" />
        </mxCell>
        <mxCell id="G_tnERsE5DukUGx3x08J-28" value="" style="group" vertex="1" connectable="0" parent="1">
          <mxGeometry x="355" y="305" width="120" height="60" as="geometry" />
        </mxCell>
        <mxCell id="G_tnERsE5DukUGx3x08J-22" value="" style="rounded=0;whiteSpace=wrap;html=1;" vertex="1" parent="G_tnERsE5DukUGx3x08J-28">
          <mxGeometry width="120" height="60" as="geometry" />
        </mxCell>
        <mxCell id="G_tnERsE5DukUGx3x08J-23" value="Core Platform" style="text;html=1;align=center;verticalAlign=middle;whiteSpace=wrap;rounded=0;" vertex="1" parent="G_tnERsE5DukUGx3x08J-28">
          <mxGeometry x="30" y="15" width="60" height="35" as="geometry" />
        </mxCell>
        <mxCell id="G_tnERsE5DukUGx3x08J-30" style="edgeStyle=orthogonalEdgeStyle;rounded=0;orthogonalLoop=1;jettySize=auto;html=1;entryX=0;entryY=0.5;entryDx=0;entryDy=0;" edge="1" parent="1" source="G_tnERsE5DukUGx3x08J-13" target="G_tnERsE5DukUGx3x08J-22">
          <mxGeometry relative="1" as="geometry">
            <mxPoint x="375" y="360" as="targetPoint" />
          </mxGeometry>
        </mxCell>
        <mxCell id="G_tnERsE5DukUGx3x08J-33" style="edgeStyle=orthogonalEdgeStyle;rounded=0;orthogonalLoop=1;jettySize=auto;html=1;entryX=0.5;entryY=1;entryDx=0;entryDy=0;" edge="1" parent="1" source="G_tnERsE5DukUGx3x08J-13" target="G_tnERsE5DukUGx3x08J-18">
          <mxGeometry relative="1" as="geometry" />
        </mxCell>
        <mxCell id="G_tnERsE5DukUGx3x08J-40" style="edgeStyle=orthogonalEdgeStyle;rounded=0;orthogonalLoop=1;jettySize=auto;html=1;" edge="1" parent="1" source="G_tnERsE5DukUGx3x08J-13" target="G_tnERsE5DukUGx3x08J-38">
          <mxGeometry relative="1" as="geometry" />
        </mxCell>
        <mxCell id="G_tnERsE5DukUGx3x08J-13" value="" style="whiteSpace=wrap;html=1;aspect=fixed;" vertex="1" parent="1">
          <mxGeometry x="255" y="300" width="70" height="70" as="geometry" />
        </mxCell>
        <mxCell id="G_tnERsE5DukUGx3x08J-14" value="API Gateway" style="text;html=1;align=center;verticalAlign=middle;whiteSpace=wrap;rounded=0;" vertex="1" parent="1">
          <mxGeometry x="265" y="320" width="60" height="30" as="geometry" />
        </mxCell>
        <mxCell id="G_tnERsE5DukUGx3x08J-31" style="edgeStyle=orthogonalEdgeStyle;rounded=0;orthogonalLoop=1;jettySize=auto;html=1;" edge="1" parent="1" source="G_tnERsE5DukUGx3x08J-22" target="G_tnERsE5DukUGx3x08J-8">
          <mxGeometry relative="1" as="geometry" />
        </mxCell>
        <mxCell id="G_tnERsE5DukUGx3x08J-36" value="" style="group" vertex="1" connectable="0" parent="1">
          <mxGeometry x="395" y="110" width="60" height="80" as="geometry" />
        </mxCell>
        <mxCell id="G_tnERsE5DukUGx3x08J-34" value="" style="shape=cylinder3;whiteSpace=wrap;html=1;boundedLbl=1;backgroundOutline=1;size=15;" vertex="1" parent="G_tnERsE5DukUGx3x08J-36">
          <mxGeometry width="60" height="80" as="geometry" />
        </mxCell>
        <mxCell id="G_tnERsE5DukUGx3x08J-35" value="Auth DB" style="text;html=1;align=center;verticalAlign=middle;whiteSpace=wrap;rounded=0;" vertex="1" parent="G_tnERsE5DukUGx3x08J-36">
          <mxGeometry y="40" width="60" height="30" as="geometry" />
        </mxCell>
        <mxCell id="G_tnERsE5DukUGx3x08J-37" value="" style="group" vertex="1" connectable="0" parent="1">
          <mxGeometry x="255" y="450" width="60" height="70" as="geometry" />
        </mxCell>
        <mxCell id="G_tnERsE5DukUGx3x08J-38" value="" style="shape=cylinder3;whiteSpace=wrap;html=1;boundedLbl=1;backgroundOutline=1;size=15;" vertex="1" parent="G_tnERsE5DukUGx3x08J-37">
          <mxGeometry width="60" height="70" as="geometry" />
        </mxCell>
        <mxCell id="G_tnERsE5DukUGx3x08J-39" value="Gateway DB" style="text;html=1;align=center;verticalAlign=middle;whiteSpace=wrap;rounded=0;" vertex="1" parent="G_tnERsE5DukUGx3x08J-37">
          <mxGeometry y="35" width="60" height="26.25" as="geometry" />
        </mxCell>
        <mxCell id="G_tnERsE5DukUGx3x08J-41" style="edgeStyle=orthogonalEdgeStyle;rounded=0;orthogonalLoop=1;jettySize=auto;html=1;entryX=0;entryY=0.25;entryDx=0;entryDy=0;" edge="1" parent="1" source="G_tnERsE5DukUGx3x08J-18" target="G_tnERsE5DukUGx3x08J-35">
          <mxGeometry relative="1" as="geometry" />
        </mxCell>
        <mxCell id="G_tnERsE5DukUGx3x08J-42" value="Platform DB" style="text;html=1;align=center;verticalAlign=middle;whiteSpace=wrap;rounded=0;" vertex="1" parent="1">
          <mxGeometry x="405" y="480" width="60" height="30" as="geometry" />
        </mxCell>
        <mxCell id="G_tnERsE5DukUGx3x08J-50" value="" style="group" vertex="1" connectable="0" parent="1">
          <mxGeometry x="475" y="150" width="80" height="80" as="geometry" />
        </mxCell>
        <mxCell id="G_tnERsE5DukUGx3x08J-48" value="" style="whiteSpace=wrap;html=1;aspect=fixed;" vertex="1" parent="G_tnERsE5DukUGx3x08J-50">
          <mxGeometry width="80" height="80" as="geometry" />
        </mxCell>
        <mxCell id="G_tnERsE5DukUGx3x08J-49" value="Config Service" style="text;html=1;align=center;verticalAlign=middle;whiteSpace=wrap;rounded=0;" vertex="1" parent="G_tnERsE5DukUGx3x08J-50">
          <mxGeometry x="10" y="25" width="60" height="30" as="geometry" />
        </mxCell>
        <mxCell id="G_tnERsE5DukUGx3x08J-70" style="edgeStyle=orthogonalEdgeStyle;rounded=0;orthogonalLoop=1;jettySize=auto;html=1;" edge="1" parent="1" source="G_tnERsE5DukUGx3x08J-61" target="G_tnERsE5DukUGx3x08J-68">
          <mxGeometry relative="1" as="geometry" />
        </mxCell>
        <mxCell id="G_tnERsE5DukUGx3x08J-68" value="" style="strokeWidth=2;html=1;shape=mxgraph.flowchart.database;whiteSpace=wrap;" vertex="1" parent="1">
          <mxGeometry x="585" y="450" width="60" height="70" as="geometry" />
        </mxCell>
        <mxCell id="G_tnERsE5DukUGx3x08J-69" value="Notification DB" style="text;html=1;align=center;verticalAlign=middle;whiteSpace=wrap;rounded=0;" vertex="1" parent="1">
          <mxGeometry x="585" y="480" width="60" height="30" as="geometry" />
        </mxCell>
        <mxCell id="G_tnERsE5DukUGx3x08J-74" style="edgeStyle=orthogonalEdgeStyle;rounded=0;orthogonalLoop=1;jettySize=auto;html=1;entryX=0.5;entryY=1;entryDx=0;entryDy=0;entryPerimeter=0;" edge="1" parent="1" source="G_tnERsE5DukUGx3x08J-48" target="G_tnERsE5DukUGx3x08J-72">
          <mxGeometry relative="1" as="geometry" />
        </mxCell>
        <mxCell id="G_tnERsE5DukUGx3x08J-80" style="edgeStyle=orthogonalEdgeStyle;rounded=0;orthogonalLoop=1;jettySize=auto;html=1;entryX=1;entryY=0.5;entryDx=0;entryDy=0;" edge="1" parent="1" source="G_tnERsE5DukUGx3x08J-76" target="G_tnERsE5DukUGx3x08J-61">
          <mxGeometry relative="1" as="geometry" />
        </mxCell>
        <mxCell id="G_tnERsE5DukUGx3x08J-76" value="" style="strokeWidth=2;html=1;shape=mxgraph.flowchart.direct_data;whiteSpace=wrap;" vertex="1" parent="1">
          <mxGeometry x="495" y="305" width="80" height="60" as="geometry" />
        </mxCell>
        <mxCell id="G_tnERsE5DukUGx3x08J-77" value="" style="group" vertex="1" connectable="0" parent="1">
          <mxGeometry x="615" y="300" width="80" height="80" as="geometry" />
        </mxCell>
        <mxCell id="G_tnERsE5DukUGx3x08J-61" value="" style="whiteSpace=wrap;html=1;aspect=fixed;direction=west;" vertex="1" parent="G_tnERsE5DukUGx3x08J-77">
          <mxGeometry width="80" height="80" as="geometry" />
        </mxCell>
        <mxCell id="G_tnERsE5DukUGx3x08J-64" value="Notification Service" style="text;html=1;align=center;verticalAlign=middle;whiteSpace=wrap;rounded=0;" vertex="1" parent="G_tnERsE5DukUGx3x08J-77">
          <mxGeometry x="10" y="25" width="60" height="30" as="geometry" />
        </mxCell>
        <mxCell id="G_tnERsE5DukUGx3x08J-79" style="edgeStyle=orthogonalEdgeStyle;rounded=0;orthogonalLoop=1;jettySize=auto;html=1;entryX=0;entryY=0.5;entryDx=0;entryDy=0;entryPerimeter=0;" edge="1" parent="1" source="G_tnERsE5DukUGx3x08J-22" target="G_tnERsE5DukUGx3x08J-76">
          <mxGeometry relative="1" as="geometry" />
        </mxCell>
        <mxCell id="G_tnERsE5DukUGx3x08J-81" value="Messaging Queue" style="text;html=1;align=center;verticalAlign=middle;whiteSpace=wrap;rounded=0;" vertex="1" parent="1">
          <mxGeometry x="498" y="320" width="60" height="30" as="geometry" />
        </mxCell>
        <mxCell id="G_tnERsE5DukUGx3x08J-82" value="" style="swimlane;startSize=0;" vertex="1" parent="1">
          <mxGeometry x="235" y="280" width="470" height="110" as="geometry" />
        </mxCell>
        <mxCell id="G_tnERsE5DukUGx3x08J-83" style="edgeStyle=orthogonalEdgeStyle;rounded=0;orthogonalLoop=1;jettySize=auto;html=1;entryX=0.417;entryY=0.996;entryDx=0;entryDy=0;entryPerimeter=0;" edge="1" parent="1" source="G_tnERsE5DukUGx3x08J-82" target="G_tnERsE5DukUGx3x08J-48">
          <mxGeometry relative="1" as="geometry" />
        </mxCell>
        <mxCell id="G_tnERsE5DukUGx3x08J-85" value="" style="group" vertex="1" connectable="0" parent="1">
          <mxGeometry x="605" y="150" width="80" height="80" as="geometry" />
        </mxCell>
        <mxCell id="G_tnERsE5DukUGx3x08J-86" value="" style="whiteSpace=wrap;html=1;aspect=fixed;" vertex="1" parent="G_tnERsE5DukUGx3x08J-85">
          <mxGeometry width="80" height="80" as="geometry" />
        </mxCell>
        <mxCell id="G_tnERsE5DukUGx3x08J-87" value="MLS Service" style="text;html=1;align=center;verticalAlign=middle;whiteSpace=wrap;rounded=0;" vertex="1" parent="G_tnERsE5DukUGx3x08J-85">
          <mxGeometry x="10" y="25" width="60" height="30" as="geometry" />
        </mxCell>
        <mxCell id="G_tnERsE5DukUGx3x08J-89" style="edgeStyle=orthogonalEdgeStyle;rounded=0;orthogonalLoop=1;jettySize=auto;html=1;entryX=0.708;entryY=0.02;entryDx=0;entryDy=0;entryPerimeter=0;" edge="1" parent="1" source="G_tnERsE5DukUGx3x08J-86" target="G_tnERsE5DukUGx3x08J-82">
          <mxGeometry relative="1" as="geometry" />
        </mxCell>
        <mxCell id="G_tnERsE5DukUGx3x08J-90" value="" style="group" vertex="1" connectable="0" parent="1">
          <mxGeometry x="645" y="30" width="60" height="80" as="geometry" />
        </mxCell>
        <mxCell id="G_tnERsE5DukUGx3x08J-91" value="" style="shape=cylinder3;whiteSpace=wrap;html=1;boundedLbl=1;backgroundOutline=1;size=15;" vertex="1" parent="G_tnERsE5DukUGx3x08J-90">
          <mxGeometry width="60" height="80" as="geometry" />
        </mxCell>
        <mxCell id="G_tnERsE5DukUGx3x08J-92" value="MLS DB" style="text;html=1;align=center;verticalAlign=middle;whiteSpace=wrap;rounded=0;" vertex="1" parent="G_tnERsE5DukUGx3x08J-90">
          <mxGeometry y="38" width="60" height="30" as="geometry" />
        </mxCell>
        <mxCell id="G_tnERsE5DukUGx3x08J-96" style="edgeStyle=orthogonalEdgeStyle;rounded=0;orthogonalLoop=1;jettySize=auto;html=1;entryX=0.5;entryY=0;entryDx=0;entryDy=0;" edge="1" parent="1" source="G_tnERsE5DukUGx3x08J-91" target="G_tnERsE5DukUGx3x08J-86">
          <mxGeometry relative="1" as="geometry" />
        </mxCell>
        <mxCell id="G_tnERsE5DukUGx3x08J-72" value="" style="shape=cylinder3;whiteSpace=wrap;html=1;boundedLbl=1;backgroundOutline=1;size=15;" vertex="1" parent="1">
          <mxGeometry x="555" y="29" width="60" height="80" as="geometry" />
        </mxCell>
        <mxCell id="G_tnERsE5DukUGx3x08J-73" value="Config DB" style="text;html=1;align=center;verticalAlign=middle;whiteSpace=wrap;rounded=0;" vertex="1" parent="1">
          <mxGeometry x="555" y="67" width="60" height="30" as="geometry" />
        </mxCell>
      </root>
    </mxGraphModel>
  </diagram>
</mxfile>
